<?xml version="1.0" encoding="UTF-8"?>
<svg id="Layer_1" data-name="Layer 1" xmlns="http://www.w3.org/2000/svg" width="77.22" height="74.96" viewBox="0 0 77.22 74.96">
  <rect width="77.22" height="74.96" rx="8.39" ry="8.39" style="fill: #237dae; stroke-width: 0px;"/>
  <path d="m44.27,13.82c-.73.22-.7.26-.64,1.06.16,2.27,1.37,3.07,3.04,4.45.33.27.64.57.97.85.19.16.21.3.05.51-.26.32-.5.66-.79,1.06-1.57-1.61-3.24-3.05-3.82-5.29-.25-.97-.32-1.12-.17-2.11.05-.32-.04-.47-.36-.6" style="fill: #fff; stroke-width: 0px;"/>
  <path d="m48.29,36.47c-1,0-2.01,0-3.01,0-.3,0-.4-.11-.43-.39-.1-1.03-.08-1.06.96-1.06,1.79,0,3.58.01,5.38,0,.4,0,.56.08.54.52-.04,1.14.09.91-.94.93-.83.01-1.66,0-2.49,0Z" style="fill: #fff; stroke-width: 0px;"/>
  <path d="m45.04,32.99c.14-.43.23-.81.38-1.16.05-.12.25-.24.39-.25,1.66-.02,3.33-.01,4.99,0,.11,0,.29.1.33.19.15.38.26.78.39,1.21h-6.48Z" style="fill: #fff; stroke-width: 0px;"/>
  <path d="m45.13,38.51c.23-.01.37-.03.51-.03,1.77,0,3.53,0,5.3,0,.47,0,.5.04.35.5q-.29.94-1.28.94c-1.32,0-2.64-.01-3.96,0-.33,0-.5-.1-.59-.41-.09-.31-.21-.62-.34-1.01Z" style="fill: #fff; stroke-width: 0px;"/>
  <path d="m50.5,29.58c-1.4,0-2.66,0-3.91,0-.13,0-.25-.01-.51-.03.32-.49.59-.92.89-1.32.06-.08.26-.09.4-.09.6,0,1.2-.03,1.8.01.22.02.49.16.63.33.25.3.43.66.7,1.1Z" style="fill: #fff; stroke-width: 0px;"/>
  <path d="m46.43,41.96h3.76c-.17.66-.79,1.41-1.16,1.41-.61-.01-1.28.09-1.81-.13-.39-.16-.59-.76-.87-1.17.03-.04.06-.08.08-.11Z" style="fill: #fff; stroke-width: 0px;"/>
  <g>
    <line x1="62.97" y1="25.62" x2="55.75" y2="28.65" style="fill: #fff; stroke: #fff; stroke-linecap: round; stroke-miterlimit: 10; stroke-width: 2px;"/>
    <rect x="59.4" y="22.05" width="7.14" height="7.14" rx="3.57" ry="3.57" transform="translate(-1.23 3.27) rotate(-2.94)" style="fill: #fff; stroke: #257dae; stroke-miterlimit: 10; stroke-width: .33px;"/>
  </g>
  <g>
    <line x1="65.32" y1="39.22" x2="57.41" y2="38.56" style="fill: #fff; stroke: #fff; stroke-linecap: round; stroke-miterlimit: 10; stroke-width: 2px;"/>
    <rect x="61.75" y="35.65" width="7.14" height="7.14" rx="3.57" ry="3.57" transform="translate(24.96 -25.41) rotate(27.04)" style="fill: #fff; stroke: #257dae; stroke-miterlimit: 10; stroke-width: .33px;"/>
  </g>
  <g>
    <line x1="60.56" y1="52.17" x2="53.95" y2="47.58" style="fill: #fff; stroke: #fff; stroke-linecap: round; stroke-miterlimit: 10; stroke-width: 2px;"/>
    <rect x="56.99" y="48.6" width="7.14" height="7.14" rx="3.57" ry="3.57" transform="translate(71.35 -27.03) rotate(57.02)" style="fill: #fff; stroke: #257dae; stroke-miterlimit: 10; stroke-width: .33px;"/>
  </g>
  <g>
    <line x1="23.42" y1="58.63" x2="27.89" y2="52.17" style="fill: #fff; stroke: #fff; stroke-linecap: round; stroke-miterlimit: 10; stroke-width: 2px;"/>
    <rect x="19.86" y="55.06" width="7.14" height="7.14" rx="3.57" ry="3.57" transform="translate(75.03 95) rotate(146.95)" style="fill: #fff; stroke: #257dae; stroke-miterlimit: 10; stroke-width: .33px;"/>
  </g>
  <g>
    <line x1="14.57" y1="48.05" x2="21.9" y2="44.57" style="fill: #fff; stroke: #fff; stroke-linecap: round; stroke-miterlimit: 10; stroke-width: 2px;"/>
    <rect x="11.01" y="44.48" width="7.14" height="7.14" rx="3.57" ry="3.57" transform="translate(31.7 95.24) rotate(176.93)" style="fill: #fff; stroke: #257dae; stroke-miterlimit: 10; stroke-width: .33px;"/>
  </g>
  <g>
    <line x1="12.19" y1="34.46" x2="20.41" y2="34.76" style="fill: #fff; stroke: #fff; stroke-linecap: round; stroke-miterlimit: 10; stroke-width: 2px;"/>
    <rect x="8.63" y="30.89" width="7.14" height="7.14" rx="3.57" ry="3.57" transform="translate(7.47 70.7) rotate(-153.09)" style="fill: #fff; stroke: #257dae; stroke-miterlimit: 10; stroke-width: .33px;"/>
  </g>
  <g>
    <line x1="16.92" y1="21.5" x2="23.56" y2="26.07" style="fill: #fff; stroke: #fff; stroke-linecap: round; stroke-miterlimit: 10; stroke-width: 2px;"/>
    <rect x="13.35" y="17.93" width="7.14" height="7.14" rx="3.57" ry="3.57" transform="translate(8.16 47.41) rotate(-123.11)" style="fill: #fff; stroke: #257dae; stroke-miterlimit: 10; stroke-width: .33px;"/>
  </g>
  <g>
    <line x1="27.49" y1="12.63" x2="31.28" y2="20.6" style="fill: #fff; stroke: #fff; stroke-linecap: round; stroke-miterlimit: 10; stroke-width: 2px;"/>
    <rect x="23.93" y="9.07" width="7.14" height="7.14" rx="3.57" ry="3.57" transform="translate(16.38 40.78) rotate(-93.13)" style="fill: #fff; stroke: #257dae; stroke-miterlimit: 10; stroke-width: .33px;"/>
  </g>
  <rect x="38.49" y="8.03" width="7.14" height="7.14" rx="3.57" ry="3.57" transform="translate(12.72 43.89) rotate(-63.15)" style="fill: #fff; stroke: #257dae; stroke-miterlimit: 10; stroke-width: .33px;"/>
  <path d="m48.27,47.44c-.05-.08-.44-.55-.9-1.16-.9-1.18-2.96-5.72-3.54-9.25-.49-3-.1-5.86,1.46-8.51,1.41-2.4,2.82-4.8,4.22-7.2,1.09-1.86,3.92-4.2,5-6.06.15-.25.26-.32.57-.21l-1.69-2.06c.12.55.44,1.06.69,1.65.01-.02-.02.04-.07.1-1.45,1.92-4.66,4.32-6.09,6.26-1.01,1.38-2,2.77-2.92,4.2-.88,1.36-1.79,2.72-2.45,4.19-1.37,3.05-1.35,6.24-.5,9.43.93,3.49,2.95,7.06,5.11,9.91l1.11-1.29Z" style="fill: #fff; stroke-width: 0px;"/>
  <g>
    <path d="m47,49.43c-.11.17-.23.35-.34.52-.73,1.11-5.44,3.17-8.09,6.06-.9.99-2.52,3.14-2.62,4.5,0,.13.38.31.23.36h1.3c-.14-.02-.27-.06-.41-.09,0-.08,0-.14,0-.19.02-.1.24-.2.27-.29.35-1.2,1.17-2.61,2.09-3.69,2.6-3.06,6.01-4.48,7.07-5s1.41-.82,1.51-.94l.41-.39s.38-.46.49-.56.98-1.09,1.17-1.28.87-1.06.88-1.07c3.34-4.17,4.69-8.96,3.87-14.32-.58-3.76-2-7.1-4.42-10.02-.25-.31-.53-.6-.84-.94-.22.34-.42.62-.59.91-.49.82-.5.54.05,1.28,2.5,3.37,3.73,7.15,3.86,11.34.08,2.66-.4,5.18-1.66,7.51-.55,1.02-1.99,3.31-2.61,4.29l-.26.34" style="fill: #fff; stroke-width: 0px;"/>
    <path d="m49.75,59.03c-.23.12.67-.1.61-.36-.13-.63.55-3.14.42-4.27-.17-1.45-.38-3.5-1.19-4.76l-.88.89c.78.97.78,3.65.88,4.68.12,1.21-.46,2.88-.12,3.95" style="fill: #fff; stroke-width: 0px;"/>
  </g>
  <g id="LqJFMI">
    <g>
      <path d="m37.69,30.68c1.79.1,3.08,1.6,3.02,3.25-.07,1.88-1.54,3.11-3.23,3.06-1.92-.05-3.2-1.62-3.13-3.31.08-1.81,1.6-3.11,3.34-3Z" style="fill: #fff; stroke-width: 0px;"/>
      <path d="m36.41,41.02c-.06.73-.32,1.36-.86,1.85-.62.57-1.35.76-2.19.66-.49-.06-.94-.23-1.35-.49-.43-.27-.77-.62-1.04-1.05-.24-.38-.39-.79-.46-1.23-.17-1,.26-2.13,1.21-2.68.89-.51,1.8-.5,2.72-.08.95.43,1.56,1.17,1.84,2.17.08.27.09.56.13.84Z" style="fill: #fff; stroke-width: 0px;"/>
      <path d="m33.86,29.8c-.06,1.11-.5,1.94-1.25,2.61-.52.47-1.14.77-1.84.79-.74.01-1.37-.23-1.78-.91-.48-.79-.41-1.6-.1-2.42.25-.65.67-1.17,1.22-1.59.57-.43,1.22-.67,1.93-.6.92.09,1.58.71,1.75,1.62.04.19.06.39.07.5Z" style="fill: #fff; stroke-width: 0px;"/>
      <path d="m39.27,47.58c-.69-.03-1.34-.21-1.84-.76-.42-.46-.56-1.01-.45-1.62.12-.67.46-1.21.96-1.63.86-.73,1.87-1.05,3-.84.59.11,1.1.4,1.44.92.32.49.38,1.03.23,1.6-.19.72-.65,1.24-1.23,1.65-.62.44-1.32.66-2.11.68Z" style="fill: #fff; stroke-width: 0px;"/>
      <path d="m37.75,23.11c.42,0,1.07.15,1.62.61.42.35.61.95.37,1.48-.3.68-.85,1.05-1.51,1.33-.47.2-.95.3-1.45.31-.81.02-1.58-.12-2.18-.73-.31-.31-.43-.7-.32-1.15.15-.58.54-.98,1.04-1.27.66-.4,1.38-.59,2.43-.58Z" style="fill: #fff; stroke-width: 0px;"/>
      <path d="m25.45,37.05c.02-.81.16-1.53.64-2.14.61-.76,1.51-.75,2.12-.02.8.94.94,2.04.74,3.22-.09.5-.27.95-.6,1.34-.54.65-1.36.68-1.97.09-.58-.57-.82-1.28-.91-2.06-.02-.16-.03-.32-.04-.42Z" style="fill: #fff; stroke-width: 0px;"/>
      <path d="m32.48,48.7c-.35-.09-.71-.14-1.05-.28-.75-.3-1.39-.77-1.9-1.41-.3-.37-.53-.76-.6-1.24-.12-.83.35-1.17,1.03-1.2.52-.03,1,.16,1.46.39.62.32,1.16.74,1.58,1.31.25.34.46.69.55,1.11.15.7-.25,1.23-.97,1.26-.03,0-.07,0-.1,0,0,.02,0,.04-.01.06Z" style="fill: #fff; stroke-width: 0px;"/>
      <path d="m38.18,51.15c-.62-.02-1.42-.15-2.11-.66-.18-.13-.34-.32-.43-.52-.15-.35.01-.65.43-.92.47-.31,1-.41,1.55-.45.69-.05,1.37.02,2.02.25.31.11.62.28.88.48.54.42.46,1.04-.13,1.38-.61.35-1.28.44-2.2.43Z" style="fill: #fff; stroke-width: 0px;"/>
      <path d="m28.78,26.7c-.02.57-.24,1.09-.53,1.56-.3.48-.63.93-.99,1.36-.26.32-.59.57-.97.74-.18.08-.37.12-.53,0-.17-.13-.18-.33-.16-.53.05-.58.3-1.08.58-1.57.38-.65.83-1.25,1.43-1.71.17-.13.37-.24.57-.32.36-.15.61.06.61.47Z" style="fill: #fff; stroke-width: 0px;"/>
      <path d="m26.93,44.04c-.03.15-.05.3-.09.44-.05.18-.18.23-.36.17-.29-.1-.5-.31-.67-.54-.69-.91-1.16-1.93-1.32-3.07-.03-.22,0-.46.05-.69.05-.2.23-.29.4-.17.24.16.48.34.66.56.49.6.82,1.29,1.06,2.03.13.41.21.83.31,1.25-.01,0-.02,0-.03.01Z" style="fill: #fff; stroke-width: 0px;"/>
      <path d="m33.43,22.18c.15-.05.42-.14.49-.15.22-.01.5-.07.61.17.11.22-.08.42-.24.57-.59.58-1.28,1.02-2.06,1.32-.47.18-.96.3-1.44.43-.09.03-.2,0-.3,0-.27-.01-.43-.15-.23-.49.07-.12,3.05-1.79,3.16-1.85" style="fill: #fff; stroke-width: 0px;"/>
      <path d="m40.64,21.11c.62.05,1.07.09,1.14.11.37.11.55.2.95.33.03,0,.06.01.1.02h0c.18.31.1.43-.28.51-.69.14-1.38.12-2.06.03-.56-.08-1.11-.23-1.67-.35-.12-.03-.23-.09-.34-.15-.13-.07-.21-.12-.22-.19-.01-.1-.06-.26.35-.3s1.42-.05,2.04,0Z" style="fill: #fff; stroke-width: 0px;"/>
      <path d="m24.6,31.7c.1.09.12.31.12.47.03,1.22-.18,2.4-.59,3.55-.04.12-.1.23-.18.33-.05.07-.14.11-.21.16-.05-.07-.13-.14-.14-.22-.03-.24-.05-.48-.05-.71.02-1.04.2-2.05.54-3.04.19-.54.26-.51.5-.54" style="fill: #fff; stroke-width: 0px;"/>
      <path d="m40.96,51.86c-.1,0-.2.01-.3,0-.06,0-.12-.06-.18-.09.04-.06.06-.14.11-.17.17-.1.35-.2.53-.27.96-.37,1.96-.61,2.98-.74.2-.03.4-.02.6-.01.07,0,.13.06.2.1-.04.05-.07.14-.13.16-.44.19-.86.41-1.32.54-.68.19-1.38.31-2.07.46-.14.03-.28.03-.42.04h0Z" style="fill: #fff; stroke-width: 0px;"/>
      <path d="m33.38,50.86c-.47.09-3.4-1.55-3.86-2.22.13.03.27.04.4.09,1.17.51,2.28,1.13,3.3,1.91.07.06.15.1.23.16-.02.02-.04.05-.06.07Z" style="fill: #fff; stroke-width: 0px;"/>
    </g>
  </g>
  <rect x="51.37" y="10.61" width="7.14" height="7.14" rx="3.57" ry="3.57" transform="translate(.54 30.31) rotate(-30.99)" style="fill: #fff; stroke: #257dae; stroke-miterlimit: 10; stroke-width: .33px;"/>
  <rect x="32.81" y="59.8" width="7.14" height="7.14" rx="3.57" ry="3.57" transform="translate(109.36 59.69) rotate(116.97)" style="fill: #fff; stroke: #257dae; stroke-miterlimit: 10; stroke-width: .33px;"/>
  <rect x="46.4" y="57.44" width="7.14" height="7.14" rx="3.57" ry="3.57" transform="translate(108.27 7.91) rotate(87)" style="fill: #fff; stroke: #257dae; stroke-miterlimit: 10; stroke-width: .33px;"/>
</svg>
