<?xml version="1.0" encoding="UTF-8"?>
<svg id="Layer_1" data-name="Layer 1" xmlns="http://www.w3.org/2000/svg" version="1.1" viewBox="0 0 24 24">
  <defs>
    <style>
      .cls-1 {
        fill: #c67;
      }

      .cls-1, .cls-2, .cls-3, .cls-4, .cls-5, .cls-6, .cls-7, .cls-8, .cls-9 {
        stroke-width: 0px;
      }

      .cls-2 {
        fill: #dc7;
      }

      .cls-3 {
        fill: #4a9;
      }

      .cls-4 {
        fill: #328;
      }

      .cls-5 {
        fill: #000;
      }

      .cls-6 {
        fill: #825;
      }

      .cls-7 {
        fill: #a49;
      }

      .cls-8 {
        fill: #173;
      }

      .cls-9 {
        fill: #8ce;
      }
    </style>
  </defs>
  <path class="cls-5" d="M12,.5c-1,0-1.8.8-1.8,1.8s.3,1.1.8,1.4v1.4c-.9,0-1.7.4-2.5.9l-1.1-1.6c.2-.5,0-1.1-.2-1.6-.3-.5-.9-.8-1.4-.8s-.7,0-1,.3c-.8.5-1,1.6-.4,2.4.3.5.9.8,1.4.8l1.2,1.7c-.4.4-.8.9-1.1,1.4-.2,0-.4-.1-.6-.1-.4,0-.9.2-1.2.5-.7.7-.7,1.8,0,2.5.3.3.6.4,1,.5h0c0,.5,0,1.1.2,1.6l-1.3.3c-.3-.3-.7-.4-1.1-.4h-.5c-.9.2-1.5,1.2-1.2,2.1.2.8.9,1.3,1.7,1.3s.3,0,.5,0c.6-.2,1-.6,1.2-1.1l1.5-.4c.4.8,1,1.5,1.8,2.1l-1.1,2c-.6,0-1.1.4-1.3.9-.5.9,0,1.9.7,2.4.3.1.5.2.8.2.6,0,1.2-.3,1.5-.9.3-.5.3-1.1,0-1.6l1.1-2c.8.3,1.7.5,2.6.5h.2c-.1.3-.2.6-.2.9,0,.9.8,1.6,1.8,1.6h.1c1,0,1.7-.9,1.6-1.9,0-.5-.3-.9-.6-1.2.5-.2.9-.5,1.3-.8l2.3,2.3c-.1.6,0,1.1.5,1.6.4.3.8.5,1.2.5s.9-.2,1.2-.5c.7-.7.7-1.8,0-2.5-.4-.3-.8-.5-1.2-.5s-.2,0-.3,0l-2.3-2.3c.5-.7.9-1.4,1.1-2.2h1.1c.3.4.8.8,1.4.8,1,0,1.8-.8,1.8-1.8s-.8-1.8-1.8-1.8-1.1.3-1.4.8h-.8c0-1.6-.5-3-1.4-4.2l1.3-1.3h.3c.5,0,.9-.2,1.2-.5.7-.7.7-1.8,0-2.5-.4-.3-.8-.5-1.2-.5s-.9.2-1.2.5c-.4.4-.6,1-.5,1.6l-1.3,1.3c-.9-.7-2-1.2-3.2-1.3v-1.4c.4-.3.8-.8.8-1.4,0-1-.8-1.8-1.8-1.8M12,17c-2.8,0-5-2.2-5-5s2.2-5,5-5,5,2.2,5,5-2.2,5-5,5M10.5,9c-.8,0-1.5.7-1.5,1.5s.7,1.5,1.5,1.5,1.5-.7,1.5-1.5-.7-1.5-1.5-1.5M14,13c-.6,0-1,.4-1,1s.4,1,1,1,1-.4,1-1-.4-1-1-1Z"/>
  <ellipse class="cls-8" cx="21.4" cy="13" rx="2" ry="2"/>
  <ellipse class="cls-7" cx="2.8" cy="15.3" rx="2" ry="2"/>
  <ellipse class="cls-1" cx="7" cy="21.2" rx="1.8" ry="1.8"/>
  <circle class="cls-6" cx="10.5" cy="10.5" r="1.7"/>
  <ellipse class="cls-2" cx="20.3" cy="20.2" rx="1.9" ry="1.9"/>
  <ellipse class="cls-4" cx="5.7" cy="3.7" rx="1.8" ry="1.8"/>
  <ellipse class="cls-9" cx="12.1" cy="2.2" rx="2.1" ry="2"/>
  <ellipse class="cls-3" cx="19.4" cy="4.7" rx="1.8" ry="1.8"/>
</svg>