<?xml version="1.0" encoding="UTF-8"?>
<svg id="Layer_1" data-name="Layer 1" xmlns="http://www.w3.org/2000/svg" width="772.2" height="749.6" viewBox="0 0 772.2 749.6">
  <rect width="772.2" height="749.6" rx="83.9" ry="83.9" style="fill: #237dae; stroke-width: 0px;"/>
  <path d="m442.7,138.2c-7.3,2.2-7,2.6-6.4,10.6,1.6,22.7,13.7,30.7,30.4,44.5,3.3,2.7,6.4,5.7,9.7,8.5,1.9,1.6,2.1,3,0.5,5.1-2.6,3.2-5,6.6-7.9,10.6-15.7-16.1-32.4-30.5-38.2-52.9-2.5-9.7-3.2-11.2-1.7-21.1,0.5-3.2-0.4-4.7-3.6-6" style="fill: #fff; stroke-width: 0px;"/>
  <path d="m482.9,364.7c-10,0-20.1,0-30.1,0-3,0-4-1.1-4.3-3.9-1-10.3-0.8-10.6,9.6-10.6,17.9,0,35.8,0.1,53.8,0,4,0,5.6,0.8,5.4,5.2-0.4,11.4,0.9,9.1-9.4,9.3-8.3,0.1-16.6,0-24.9,0Z" style="fill: #fff; stroke-width: 0px;"/>
  <path d="m450.4,329.9c1.4-4.3,2.3-8.1,3.8-11.6,0.5-1.2,2.5-2.4,3.9-2.5,16.6-0.2,33.3-0.1,49.9,0,1.1,0,2.9,1,3.3,1.9,1.5,3.8,2.6,7.8,3.9,12.1h-64.8Z" style="fill: #fff; stroke-width: 0px;"/>
  <path d="m451.3,385.1c2.3-0.1,3.7-0.3,5.1-0.3,17.7,0,35.3,0,53,0,4.7,0,5,0.4,3.5,5q-2.9,9.4-12.8,9.4c-13.2,0-26.4-0.1-39.6,0-3.3,0-5-1-5.9-4.1-0.9-3.1-2.1-6.2-3.4-10.1Z" style="fill: #fff; stroke-width: 0px;"/>
  <path d="m505,295.8c-14,0-26.6,0-39.1,0-1.3,0-2.5-0.1-5.1-0.3,3.2-4.9,5.9-9.2,8.9-13.2,0.6-0.8,2.6-0.9,4-0.9,6,0,12-0.3,18,0.1,2.2,0.2,4.9,1.6,6.3,3.3,2.5,3,4.3,6.6,7,11Z" style="fill: #fff; stroke-width: 0px;"/>
  <path d="m464.3,419.6h37.6c-1.7,6.6-7.9,14.1-11.6,14.1-6.1-0.1-12.8,0.9-18.1-1.3-3.9-1.6-5.9-7.6-8.7-11.7,0.3-0.4,0.6-0.8,0.8-1.1Z" style="fill: #fff; stroke-width: 0px;"/>
  <g>
    <line x1="629.7" y1="256.2" x2="557.5" y2="286.5" style="fill: #fff; stroke: #fff; stroke-linecap: round; stroke-miterlimit: 10; stroke-width: 20px;"/>
    <rect x="594" y="220.5" width="71.4" height="71.4" rx="35.7" ry="35.7" transform="translate(-12.3 32.7) rotate(-2.94)" style="fill: #fff; stroke: #257dae; stroke-miterlimit: 10; stroke-width: 3.3px;"/>
  </g>
  <g>
    <line x1="653.2" y1="392.2" x2="574.1" y2="385.6" style="fill: #fff; stroke: #fff; stroke-linecap: round; stroke-miterlimit: 10; stroke-width: 20px;"/>
    <rect x="617.5" y="356.5" width="71.4" height="71.4" rx="35.7" ry="35.7" transform="translate(249.6 -254.1) rotate(27.04)" style="fill: #fff; stroke: #257dae; stroke-miterlimit: 10; stroke-width: 3.3px;"/>
  </g>
  <g>
    <line x1="605.6" y1="521.7" x2="539.5" y2="475.8" style="fill: #fff; stroke: #fff; stroke-linecap: round; stroke-miterlimit: 10; stroke-width: 20px;"/>
    <rect x="569.9" y="486" width="71.4" height="71.4" rx="35.7" ry="35.7" transform="translate(713.5 -270.3) rotate(57.02)" style="fill: #fff; stroke: #257dae; stroke-miterlimit: 10; stroke-width: 3.3px;"/>
  </g>
  <g>
    <line x1="234.2" y1="586.3" x2="278.9" y2="521.7" style="fill: #fff; stroke: #fff; stroke-linecap: round; stroke-miterlimit: 10; stroke-width: 20px;"/>
    <rect x="198.6" y="550.6" width="71.4" height="71.4" rx="35.7" ry="35.7" transform="translate(750.3 950) rotate(146.95)" style="fill: #fff; stroke: #257dae; stroke-miterlimit: 10; stroke-width: 3.3px;"/>
  </g>
  <g>
    <line x1="145.7" y1="480.5" x2="219" y2="445.7" style="fill: #fff; stroke: #fff; stroke-linecap: round; stroke-miterlimit: 10; stroke-width: 20px;"/>
    <rect x="110.1" y="444.8" width="71.4" height="71.4" rx="35.7" ry="35.7" transform="translate(317 952.4) rotate(176.93)" style="fill: #fff; stroke: #257dae; stroke-miterlimit: 10; stroke-width: 3.3px;"/>
  </g>
  <g>
    <line x1="121.9" y1="344.6" x2="204.1" y2="347.6" style="fill: #fff; stroke: #fff; stroke-linecap: round; stroke-miterlimit: 10; stroke-width: 20px;"/>
    <rect x="86.3" y="308.9" width="71.4" height="71.4" rx="35.7" ry="35.7" transform="translate(74.7 707) rotate(-153.09)" style="fill: #fff; stroke: #257dae; stroke-miterlimit: 10; stroke-width: 3.3px;"/>
  </g>
  <g>
    <line x1="169.2" y1="215" x2="235.6" y2="260.7" style="fill: #fff; stroke: #fff; stroke-linecap: round; stroke-miterlimit: 10; stroke-width: 20px;"/>
    <rect x="133.5" y="179.3" width="71.4" height="71.4" rx="35.7" ry="35.7" transform="translate(81.6 474.1) rotate(-123.11)" style="fill: #fff; stroke: #257dae; stroke-miterlimit: 10; stroke-width: 3.3px;"/>
  </g>
  <g>
    <line x1="274.9" y1="126.3" x2="312.8" y2="206" style="fill: #fff; stroke: #fff; stroke-linecap: round; stroke-miterlimit: 10; stroke-width: 20px;"/>
    <rect x="239.3" y="90.7" width="71.4" height="71.4" rx="35.7" ry="35.7" transform="translate(163.8 407.8) rotate(-93.13)" style="fill: #fff; stroke: #257dae; stroke-miterlimit: 10; stroke-width: 3.3px;"/>
  </g>
  <rect x="384.9" y="80.3" width="71.4" height="71.4" rx="35.7" ry="35.7" transform="translate(127.2 438.9) rotate(-63.15)" style="fill: #fff; stroke: #257dae; stroke-miterlimit: 10; stroke-width: 3.3px;"/>
  <path d="m482.7,474.4c-0.5-0.8-4.4-5.5-9-11.6-9-11.8-29.6-57.2-35.4-92.5-4.9-30-1-58.6,14.6-85.1,14.1-24,28.2-48,42.2-72,10.9-18.6,39.2-42,50-60.6,1.5-2.5,2.6-3.2,5.7-2.1l-16.9-20.6c1.2,5.5,4.4,10.6,6.9,16.5,0.1-0.2-0.2,0.4-0.7,1-14.5,19.2-46.6,43.2-60.9,62.6-10.1,13.8-20,27.7-29.2,42-8.8,13.6-17.9,27.2-24.5,41.9-13.7,30.5-13.5,62.4-5,94.3,9.3,34.9,29.5,70.6,51.1,99.1l11.1-12.9Z" style="fill: #fff; stroke-width: 0px;"/>
  <g>
    <path d="m470,494.3c-1.1,1.7-2.3,3.5-3.4,5.2-7.3,11.1-54.4,31.7-80.9,60.6-9,9.9-25.2,31.4-26.2,45,0,1.3,3.8,3.1,2.3,3.6h13c-1.4-0.2-2.7-0.6-4.1-0.9,0-0.8,0-1.4,0-1.9,0.2-1,2.4-2,2.7-2.9,3.5-12,11.7-26.1,20.9-36.9,26-30.6,60.1-44.8,70.7-50s14.1-8.2,15.1-9.4l4.1-3.9s3.8-4.6,4.9-5.6,9.8-10.9,11.7-12.8,8.7-10.6,8.8-10.7c33.4-41.7,46.9-89.6,38.7-143.2-5.8-37.6-20-71-44.2-100.2-2.5-3.1-5.3-6-8.4-9.4-2.2,3.4-4.2,6.2-5.9,9.1-4.9,8.2-5,5.4,0.5,12.8,25,33.7,37.3,71.5,38.6,113.4,0.8,26.6-4,51.8-16.6,75.1-5.5,10.2-19.9,33.1-26.1,42.9l-2.6,3.4" style="fill: #fff; stroke-width: 0px;"/>
    <path d="m497.5,590.3c-2.3,1.2,6.7-1,6.1-3.6-1.3-6.3,5.5-31.4,4.2-42.7-1.7-14.5-3.8-35-11.9-47.6l-8.8,8.9c7.8,9.7,7.8,36.5,8.8,46.8,1.2,12.1-4.6,28.8-1.2,39.5" style="fill: #fff; stroke-width: 0px;"/>
  </g>
  <g id="LqJFMI">
    <g>
      <path d="m376.9,306.8c17.9,1,30.8,16,30.2,32.5-0.7,18.8-15.4,31.1-32.3,30.6-19.2-0.5-32-16.2-31.3-33.1,0.8-18.1,16-31.1,33.4-30Z" style="fill: #fff; stroke-width: 0px;"/>
      <path d="m364.1,410.2c-0.6,7.3-3.2,13.6-8.6,18.5-6.2,5.7-13.5,7.6-21.9,6.6-4.9-0.6-9.4-2.3-13.5-4.9-4.3-2.7-7.7-6.2-10.4-10.5-2.4-3.8-3.9-7.9-4.6-12.3-1.7-10,2.6-21.3,12.1-26.8,8.9-5.1,18-5,27.2-0.8,9.5,4.3,15.6,11.7,18.4,21.7,0.8,2.7,0.9,5.6,1.3,8.4Z" style="fill: #fff; stroke-width: 0px;"/>
      <path d="m338.6,298c-0.6,11.1-5,19.4-12.5,26.1-5.2,4.7-11.4,7.7-18.4,7.9-7.4,0.1-13.7-2.3-17.8-9.1-4.8-7.9-4.1-16-1-24.2,2.5-6.5,6.7-11.7,12.2-15.9,5.7-4.3,12.2-6.7,19.3-6,9.2,0.9,15.8,7.1,17.5,16.2,0.4,1.9,0.6,3.9,0.7,5Z" style="fill: #fff; stroke-width: 0px;"/>
      <path d="m392.7,475.8c-6.9-0.3-13.4-2.1-18.4-7.6-4.2-4.6-5.6-10.1-4.5-16.2,1.2-6.7,4.6-12.1,9.6-16.3,8.6-7.3,18.7-10.5,30-8.4,5.9,1.1,11,4,14.4,9.2,3.2,4.9,3.8,10.3,2.3,16-1.9,7.2-6.5,12.4-12.3,16.5-6.2,4.4-13.2,6.6-21.1,6.8Z" style="fill: #fff; stroke-width: 0px;"/>
      <path d="m377.5,231.1c4.2,0,10.7,1.5,16.2,6.1,4.2,3.5,6.1,9.5,3.7,14.8-3,6.8-8.5,10.5-15.1,13.3-4.7,2-9.5,3-14.5,3.1-8.1,0.2-15.8-1.2-21.8-7.3-3.1-3.1-4.3-7-3.2-11.5,1.5-5.8,5.4-9.8,10.4-12.7,6.6-4,13.8-5.9,24.3-5.8Z" style="fill: #fff; stroke-width: 0px;"/>
      <path d="m254.5,370.5c0.2-8.1,1.6-15.3,6.4-21.4,6.1-7.6,15.1-7.5,21.2-0.2,8,9.4,9.4,20.4,7.4,32.2-0.9,5-2.7,9.5-6,13.4-5.4,6.5-13.6,6.8-19.7,0.9-5.8-5.7-8.2-12.8-9.1-20.6-0.2-1.6-0.3-3.2-0.4-4.2Z" style="fill: #fff; stroke-width: 0px;"/>
      <path d="m324.8,487c-3.5-0.9-7.1-1.4-10.5-2.8-7.5-3-13.9-7.7-19-14.1-3-3.7-5.3-7.6-6-12.4-1.2-8.3,3.5-11.7,10.3-12,5.2-0.3,10,1.6,14.6,3.9,6.2,3.2,11.6,7.4,15.8,13.1,2.5,3.4,4.6,6.9,5.5,11.1,1.5,7-2.5,12.3-9.7,12.6-0.3,0-0.7,0-1,0,0,0.2,0,0.4-0.1,0.6Z" style="fill: #fff; stroke-width: 0px;"/>
      <path d="m381.8,511.5c-6.2-0.2-14.2-1.5-21.1-6.6-1.8-1.3-3.4-3.2-4.3-5.2-1.5-3.5,0.1-6.5,4.3-9.2,4.7-3.1,10-4.1,15.5-4.5,6.9-0.5,13.7,0.2,20.2,2.5,3.1,1.1,6.2,2.8,8.8,4.8,5.4,4.2,4.6,10.4-1.3,13.8-6.1,3.5-12.8,4.4-22,4.3Z" style="fill: #fff; stroke-width: 0px;"/>
      <path d="m287.8,267c-0.2,5.7-2.4,10.9-5.3,15.6-3,4.8-6.3,9.3-9.9,13.6-2.6,3.2-5.9,5.7-9.7,7.4-1.8,0.8-3.7,1.2-5.3,0-1.7-1.3-1.8-3.3-1.6-5.3,0.5-5.8,3-10.8,5.8-15.7,3.8-6.5,8.3-12.5,14.3-17.1,1.7-1.3,3.7-2.4,5.7-3.2,3.6-1.5,6.1,0.6,6.1,4.7Z" style="fill: #fff; stroke-width: 0px;"/>
      <path d="m269.3,440.4c-0.3,1.5-0.5,3-0.9,4.4-0.5,1.8-1.8,2.3-3.6,1.7-2.9-1-5-3.1-6.7-5.4-6.9-9.1-11.6-19.3-13.2-30.7-0.3-2.2,0-4.6,0.5-6.9,0.5-2,2.3-2.9,4-1.7,2.4,1.6,4.8,3.4,6.6,5.6,4.9,6,8.2,12.9,10.6,20.3,1.3,4.1,2.1,8.3,3.1,12.5-0.1,0-0.2,0-0.3,0.1Z" style="fill: #fff; stroke-width: 0px;"/>
      <path d="m334.3,221.8c1.5-0.5,4.2-1.4,4.9-1.5,2.2-0.1,5-0.7,6.1,1.7,1.1,2.2-0.8,4.2-2.4,5.7-5.9,5.8-12.8,10.2-20.6,13.2-4.7,1.8-9.6,3-14.4,4.3-0.9,0.3-2,0-3,0-2.7-0.1-4.3-1.5-2.3-4.9,0.7-1.2,30.5-17.9,31.6-18.5" style="fill: #fff; stroke-width: 0px;"/>
      <path d="m406.4,211.1c6.2,0.5,10.7,0.9,11.4,1.1,3.7,1.1,5.5,2,9.5,3.3,0.3,0,0.6,0.1,1,0.2h0c1.8,3.1,1,4.3-2.8,5.1-6.9,1.4-13.8,1.2-20.6,0.3-5.6-0.8-11.1-2.3-16.7-3.5-1.2-0.3-2.3-0.9-3.4-1.5-1.3-0.7-2.1-1.2-2.2-1.9-0.1-1-0.6-2.6,3.5-3s14.2-0.5,20.4,0Z" style="fill: #fff; stroke-width: 0px;"/>
      <path d="m246,317c1,0.9,1.2,3.1,1.2,4.7,0.3,12.2-1.8,24-5.9,35.5-0.4,1.2-1,2.3-1.8,3.3-0.5,0.7-1.4,1.1-2.1,1.6-0.5-0.7-1.3-1.4-1.4-2.2-0.3-2.4-0.5-4.8-0.5-7.1,0.2-10.4,2-20.5,5.4-30.4,1.9-5.4,2.6-5.1,5-5.4" style="fill: #fff; stroke-width: 0px;"/>
      <path d="m409.6,518.6c-1,0-2,0.1-3,0-0.6,0-1.2-0.6-1.8-0.9,0.4-0.6,0.6-1.4,1.1-1.7,1.7-1,3.5-2,5.3-2.7,9.6-3.7,19.6-6.1,29.8-7.4,2-0.3,4-0.2,6-0.1,0.7,0,1.3,0.6,2,1-0.4,0.5-0.7,1.4-1.3,1.6-4.4,1.9-8.6,4.1-13.2,5.4-6.8,1.9-13.8,3.1-20.7,4.6-1.4,0.3-2.8,0.3-4.2,0.4h0Z" style="fill: #fff; stroke-width: 0px;"/>
      <path d="m333.8,508.6c-4.7,0.9-34-15.5-38.6-22.2,1.3,0.3,2.7,0.4,4,0.9,11.7,5.1,22.8,11.3,33,19.1,0.7,0.6,1.5,1,2.3,1.6-0.2,0.2-0.4,0.5-0.6,0.7Z" style="fill: #fff; stroke-width: 0px;"/>
    </g>
  </g>
  <rect x="513.7" y="106.1" width="71.4" height="71.4" rx="35.7" ry="35.7" transform="translate(5.4 303.1) rotate(-30.99)" style="fill: #fff; stroke: #257dae; stroke-miterlimit: 10; stroke-width: 3.3px;"/>
  <rect x="328.1" y="598" width="71.4" height="71.4" rx="35.7" ry="35.7" transform="translate(1093.6 596.9) rotate(116.97)" style="fill: #fff; stroke: #257dae; stroke-miterlimit: 10; stroke-width: 3.3px;"/>
  <rect x="464" y="574.4" width="71.4" height="71.4" rx="35.7" ry="35.7" transform="translate(1082.7 79.1) rotate(87)" style="fill: #fff; stroke: #257dae; stroke-miterlimit: 10; stroke-width: 3.3px;"/>
</svg>
